<svg width="24" height="24" viewBox="0 0 24 24" fill="none" xmlns="http://www.w3.org/2000/svg">
<path d="M19.9525 7.92007C19.9647 8.09639 19.9647 8.2727 19.9647 8.45064C19.9647 13.8725 15.8371 20.1256 8.28966 20.1256V20.1224C6.06013 20.1256 3.8769 19.487 2 18.2829C2.32419 18.3219 2.65001 18.3414 2.97664 18.3422C4.82429 18.3438 6.61913 17.7238 8.07272 16.5823C6.31688 16.549 4.77717 15.4041 4.23928 13.7328C4.85436 13.8514 5.48812 13.827 6.09181 13.6621C4.17753 13.2753 2.80033 11.5934 2.80033 9.64016C2.80033 9.62229 2.80033 9.60522 2.80033 9.58816C3.37071 9.90585 4.00934 10.0822 4.6626 10.1017C2.85964 8.89671 2.30388 6.49818 3.39265 4.6229C5.47593 7.18637 8.54967 8.74477 11.8493 8.90971C11.5186 7.48457 11.9703 5.99117 13.0364 4.98934C14.689 3.43582 17.2882 3.51544 18.8418 5.16728C19.7607 4.98609 20.6415 4.6489 21.4475 4.17114C21.1412 5.12097 20.5001 5.92779 19.6437 6.44049C20.457 6.34461 21.2517 6.12686 22 5.79454C21.4491 6.62005 20.7552 7.33913 19.9525 7.92007Z" fill="#6D6666"/>
</svg>
